<?xml version="1.0" encoding="UTF-8"?>
<svg id="Layer_1" xmlns="http://www.w3.org/2000/svg" version="1.1" viewBox="0 0 432 120">
  <!-- Generator: Adobe Illustrator 29.1.0, SVG Export Plug-In . SVG Version: 2.1.0 Build 142)  -->
  <defs>
    <style>
      .st0 {
        fill: #fff;
      }

      .st1 {
        isolation: isolate;
      }

      .st2 {
        fill: #e7262d;
      }
    </style>
  </defs>
  <g id="Pulse">
    <g class="st1">
      <g class="st1">
        <path class="st0" d="M241,90.2v-33.4l7.4-2.6v2.9c1.4-1.4,3.7-2.9,7.1-2.9,6.3,0,10.7,5.6,10.7,13.3s-4.4,13.8-11.5,13.8-5.1-1.4-6.3-2.3v11.3h-7.4ZM248.4,70.8c0,3.6.5,7,4.5,7s5.4-3.8,5.4-9.5-1.4-10.4-5.2-10.4-4.6,2.8-4.6,5.3v7.6h0Z"/>
        <path class="st0" d="M279.9,81.3c-8,0-8.1-4-8.1-8.8v-15.6l7.6-2.6v18.3c0,2.8.2,4.3,3.7,4.3s4.7-2.1,4.9-2.9v-17l7.6-2.7v26.6h-7.6v-2.6c-1,.8-3.4,3-8.1,3Z"/>
        <path class="st0" d="M303.6,80.8v-37.1l7.6-2.6v39.7h-7.6Z"/>
        <path class="st0" d="M327.1,81.3c-3,0-6-.7-8.9-1.7v-5c1.4,1.2,4.5,3.9,9.6,3.9s4.7-1.5,4.7-3.6c0-5-14.4-4-14.4-12.5s4.3-8.1,10.8-8.1,5.4.5,8.1,1.5v4.7c-1.5-1.1-3.6-3.1-8.1-3.1s-4.3,1-4.3,2.9c0,4.9,14.6,3.9,14.6,12.6s-4.6,8.5-12,8.5h-.1Z"/>
        <path class="st0" d="M357.7,81.3c-9.1,0-14.6-4.6-14.6-13.4s5-13.7,13.4-13.7,10.7,5.8,11,8.9l-15.8,9.2c.6,2.4,2.4,6,7.6,6s7.4-2.9,8.1-3.8v4.6c-1.9.7-5.4,2.2-9.8,2.2h0ZM350.9,65.5c0,.6,0,2.3.2,3.7l9.1-5.2c-.1-1.7-.5-6.9-4.5-6.9s-4.9,1.8-4.9,8.4h0Z"/>
      </g>
    </g>
    <rect class="st0" x="209.3" y="42.2" width="1.4" height="56.9"/>
    <g>
      <path class="st0" d="M161.7,35.9c1.2.5,1.9,1.2,2.2,2.4.5,1.7.7,3.2.7,5v15.6c0,.9,0,1,1,1h6c1.2,0,1.4,0,1.4-1.4v-17.6c0-1.2,0-2.4-.3-3.6-.5-4.1-3.1-6.3-6.8-6.5-3.9,0-7.9.5-11.5,2.2-.9.3-1.4.3-2.2-.2-1.4-.9-2.9-1.7-4.6-1.9-3.8-.3-7.4.3-10.9,1.7-1.1.5-1.6.1-1.5-1,0-.9,0-1-1-.9-1.9.5-3.8.9-5.6,1.4-1.4.3-1.5.5-1.5,1.9v12.5h0v12.8c0,.7.3.9.9.9h6c.9,0,1.4-.5,1.4-1.4h0v-22.2c0-.5,0-1,.9-1,2.1-.2,3.9-.3,6,.3,1.5.5,2.7,1.4,3.1,2.9.3,1.4.7,2.7.7,4.3v16.2c0,.9.2,1.2,1.2,1.2h6c1,0,1.2-.2,1.2-1.2v-6.8c0-5.1.2-10.4-.5-15.6,0-.5,0-.9.7-.9h1.7c1.9,0,3.8,0,5.6.7l.2-.9h-.5Z"/>
      <path class="st0" d="M106.2,85.6c-.5-2.7-3.4-6-7.5-5.5-2.1.2-3.9,1-5.6,1.9-1.5.7-2.9,1.5-4.4,2.2v-3.8c0-.5,0-.7-.5-.5-2.2.7-4.6,1.2-6.8,1.7-.3,0-.5.3-.5.7v27.9c0,.5,0,.7.7.7h6.5c.7,0,.9,0,.7-.9v-19.3c0-6.5,0-3.4,0-5.1s0-.7.7-.7c1.5-.2,2.9-.3,4.4,0,2.9.3,4.3,1.7,4.8,4.4.3,1.4.3,2.9.3,4.4v16.6c0,.7.2.9.9.7h6.2c.7,0,1-.3,1-.9v-19c0-1.9-.2-3.6-.5-5.5l-.2-.2-.2.2Z"/>
      <path class="st0" d="M89.6,58.6h0c0,1,.2,1,1.2.9,2.1-.5,4.1-1,6.2-1.4.7,0,1-.5,1-1.2v-25.8c0-.6-.3-.8-.9-.7-2.1.3-4.1.9-6,1.2-1.2.2-1.4.3-1.4,1.5v20.5c0,1,0,1.2-1,1.4-1.9.5-3.9.3-5.8-.2-2.2-.5-3.4-2.1-3.8-4.3,0-.9-.2-1.5-.2-2.4v-16.9c0-.7-.3-1-1-.9-2.2.5-4.4.9-6.7,1.4-.5,0-.7.3-.7.9v17.8c0,1,0,2.1.3,3.2.9,3.9,3.4,6,7.5,6.2,3.6,0,7-.7,10.3-2.1,1-.3,1.2-.3,1.2.9h-.3.1Z"/>
      <path class="st0" d="M181.7,86.5c0-1.4-.3-2.7-1.4-3.8-1.2-1.2-2.7-1.9-4.3-2.1-5.5-1-10.6-.3-15.9,1.2-.3,0-.3.2-.3.5v2.7h.5c3.1-1.2,6.2-1.7,9.4-1.7s3.9,1.2,4.3,3.6c.3,2.1,0,4.3.2,6.3,0,.5,0,.7-.7.7-2.9-.3-5.8,0-8.7.3-2.1.3-4.1,1-5.6,2.7-2.1,2.2-2.4,5-1.9,7.9.9,4.8,5.8,7.7,10.4,6.2,2.1-.7,3.9-1.7,5.8-3.1.2,0,.3-.3.7-.3v3.4c0,.3,0,.5.5.3,2.1-.5,4.3-1,6.3-1.5.5,0,.7-.3.7-.9v-22.6.2ZM173.9,106.6c-1.9.2-3.8.3-5.6,0-2.1-.5-3.2-2.1-3.4-3.9-.2-2.6.5-4.1,2.6-5.1s4.3-1.4,6.5-1.5c.5,0,.3.2.3.5v9.7c0,.3,0,.5-.3.7v-.3h-.1Z"/>
      <path class="st0" d="M130.4,80.3h-5.3c-.5,0-.7,0-.7-.7v-8.5c.5-2.9,2.1-4.4,5.1-3.9,2.4.3,4.8.9,7,1.4.5,0,.7,0,.7-.5v-2.2c0-.5,0-.7-.5-.7-1.4-.3-2.7-.5-4.1-.7-2.9-.3-5.6-.3-8.4.5-4.6,1.4-8,5.3-7.9,10.6v3.9c0,.5,0,.7-.7.7h-3.1c-.3,0-.5,0-.5.5v2.4c0,.3,0,.5.5.5h2.9c.7,0,.9.2.9.9v25.6c0,.5,0,.7.7.7h6.5c.5,0,.7,0,.7-.7v-25.8c0-.5,0-.7.7-.7h5.3c.3,0,.5,0,.5-.5v-2.2c0-.3-.2-.5-.5-.5h.2Z"/>
      <path class="st0" d="M121,56.5c3.2-3.1,3.6-8.9-.7-11.8-1.7-1.2-3.6-2.2-5.5-3.1-1.5-.7-3.1-1.5-4.6-2.6-1.2-.9-1.7-1.9-1.5-3.2s1.5-2.6,3.2-2.6c3.1,0,6.2-.2,9.1,1.4.7.3,1,0,1-.7v-2.1c0-.3-.2-.7-.5-.7-2.9-.5-5.6-1-8.5-1s-6.2.7-8.4,2.2c-3.6,2.4-4.6,7.2-2.1,10.6,1,1.5,2.6,2.6,4.1,3.4,1.9,1,3.8,2.1,5.6,3.1,1,.5,2.1,1.4,2.7,2.2.5.5.7,1.2.5,1.9-.2,1.7-1.7,3.1-3.4,3.2-3.6,0-7.4,0-10.6-1.9-.5-.3-.7,0-.7.5v1.9c0,.9,0,1.2,1,1.4,3.8,1,7.5,1.5,11.5,1.2,2.9-.3,5.5-1.2,7.5-3.1l.2-.3h.1Z"/>
      <path class="st0" d="M154.4,80.5c-.9-.3-1.7-.5-2.7-.5-1.9,0-3.2,1-4.6,2.1-1.2.9-2.2,1.9-3.4,3.1v-5c0-.3,0-.5-.5-.3-2.2.5-4.6,1-6.8,1.5-.3,0-.5.2-.5.7v28.2c0,.5.2.7.7.5h6.5c.7,0,.9,0,.9-.9v-22.9c0-7.7,0-1.2,1.2-1.4,3.4-.5,6.5.5,9.2,2.7.2.2.5.3.9.5v-8c0-.2-.1-.4-.3-.5l-.3.2h-.3Z"/>
      <path class="st0" d="M70.6,79.6c-2.6.7-5,1.4-7.5,1.9-.3,0-.3.3-.3.7v27.9c0,.3.2.5.5.5h6.5c.7,0,.9,0,.9-.9v-30.3.2h-.1Z"/>
      <path class="st0" d="M68.5,66.6c-1.2-.3-2.4-.2-3.8,0-3.1.5-3.4,3.1-2.7,5.1.2.7.7,1.2,1.4,1.5,1,.5,2.1.5,3.1.5h1.9c1.9-.3,2.9-1.5,2.9-3.2s-.9-3.4-2.9-3.8l.2-.2h0Z"/>
    </g>
    <path class="st2" d="M185,9.2c-2.6,3.1-5.3,5.8-8.4,8.2-3.4,2.6-7,4.8-11.3,5.8-.2,0-.7,0-.7.3s.3.5.5.7c4.1,2.2,8.2,4.6,12.3,6.7.3.2.9.3,1.2.2.5,0,.7-.3.7-.9-.5-1.7-.3-3.6,0-5.3.9-4.6,2.6-8.9,4.8-13,.5-1,1.2-2.1,1.9-3.4-.3.2-.6.5-.9.7h-.2,0Z"/>
  </g>
</svg>